<svg width="136" height="181" viewBox="0 0 136 181" fill="none" xmlns="http://www.w3.org/2000/svg">
<path d="M135.693 61.8144C135.718 56.5985 134.294 51.478 131.571 47.0267C128.851 42.5757 124.948 38.9691 120.294 36.6118C115.639 34.2541 110.42 33.2384 105.222 33.6783C100.021 34.1182 95.0494 35.9962 90.8552 39.1025C86.6646 42.2085 83.42 46.4196 81.4884 51.2647C79.5568 56.1095 79.01 61.3969 79.9129 66.5344C80.8157 71.6715 83.1323 76.4565 86.5999 80.3526C90.0675 84.2487 94.553 87.1026 99.553 88.5946C97.7077 92.3454 94.8516 95.5071 91.3084 97.7245C87.7617 99.9423 83.6682 101.128 79.4884 101.147H57.0066C48.683 101.176 40.6687 104.301 34.5248 109.913V55.6222C41.3485 54.2298 47.4132 50.3538 51.5391 44.7463C55.6649 39.1385 57.5642 32.1982 56.8627 25.2712C56.1649 18.3441 52.9167 11.9235 47.7513 7.25435C42.5859 2.58518 35.8701 0 28.9026 0C21.9386 0 15.2229 2.58518 10.0574 7.25435C4.89202 11.9235 1.64386 18.3441 0.946024 25.2712C0.244592 32.1982 2.14384 39.1385 6.2697 44.7463C10.3956 50.3538 16.4603 54.2298 23.2839 55.6222V124.174C16.4746 125.476 10.374 129.225 6.13662 134.713C1.90285 140.202 -0.17986 147.05 0.287762 153.966C0.755383 160.883 3.73737 167.39 8.67258 172.259C13.6078 177.129 20.1545 180.025 27.0789 180.401C34.0033 180.777 40.8233 178.607 46.2585 174.301C51.6901 169.994 55.3627 163.848 56.575 157.023C57.7872 150.198 56.4599 143.164 52.8448 137.25C49.2261 131.335 43.5715 126.948 36.9421 124.916C38.791 121.169 41.6471 118.012 45.1938 115.798C48.7369 113.585 52.8268 112.403 57.0066 112.385H79.4884C86.5027 112.353 93.33 110.135 99.0242 106.04C104.718 101.945 108.995 96.1764 111.254 89.5386C117.992 88.6525 124.182 85.3556 128.675 80.2584C133.168 75.1608 135.661 68.6086 135.693 61.8144ZM12.043 28.1005C12.043 24.7665 13.0322 21.5074 14.8847 18.7352C16.7372 15.9631 19.3703 13.8025 22.453 12.5266C25.5321 11.2508 28.9242 10.917 32.1939 11.5674C35.4637 12.2178 38.4672 13.8233 40.8269 16.1808C43.1866 18.5383 44.7909 21.5419 45.442 24.8118C46.0931 28.0818 45.7585 31.4711 44.4816 34.5514C43.2046 37.6317 41.0463 40.2641 38.273 42.1165C35.4996 43.9689 32.2407 44.9574 28.9026 44.9574C24.4314 44.9574 20.1437 43.1813 16.9818 40.0203C13.82 36.8589 12.043 32.5712 12.043 28.1005ZM45.7657 151.718C45.7657 155.052 44.7765 158.311 42.924 161.083C41.0715 163.856 38.4385 166.016 35.3558 167.292C32.2767 168.568 28.8846 168.902 25.6149 168.251C22.3451 167.601 19.3379 165.995 16.9818 163.638C14.6222 161.28 13.0178 158.277 12.3668 155.007C11.7157 151.737 12.0502 148.348 13.3272 145.267C14.6042 142.187 16.7624 139.554 19.5358 137.702C22.3091 135.85 25.5681 134.861 28.9026 134.861C33.3773 134.861 37.6651 136.637 40.8269 139.798C43.9888 142.96 45.7657 147.248 45.7657 151.718ZM107.589 78.6714C104.254 78.6714 100.995 77.6828 98.222 75.8304C95.4487 73.978 93.2904 71.3457 92.0135 68.2652C90.7365 65.1851 90.402 61.7957 91.053 58.5257C91.7041 55.2557 93.3084 52.2522 95.6681 49.8946C98.0242 47.5373 101.031 45.9316 104.301 45.2815C107.571 44.6309 110.963 44.9646 114.042 46.2405C117.125 47.5165 119.758 49.677 121.61 52.4493C123.463 55.2212 124.452 58.4804 124.452 61.8144C124.452 66.2851 122.675 70.5728 119.513 73.7342C116.351 76.8952 112.064 78.6714 107.589 78.6714Z" fill="#444444"/>
</svg>
