<svg width="181" height="180" viewBox="0 0 181 180" fill="none" xmlns="http://www.w3.org/2000/svg">
<path fill-rule="evenodd" clip-rule="evenodd" d="M101.537 11.2435L112.778 0.00549316H168.982L180.223 11.2435V67.4334L168.982 78.6714H112.778L101.537 67.4334V11.2435ZM112.778 11.2435V67.4334H168.982V11.2435H112.778ZM0.368958 112.385V44.9574L11.6099 33.7194H67.8143L79.0552 44.9574V101.147L73.433 106.766L73.4366 106.767L79.0552 101.147H135.26L146.501 112.385V168.575L135.26 179.813H79.0552H67.8143H11.6099L0.368958 168.575V112.385ZM11.6099 168.575V112.385H67.8143V168.575H11.6099ZM79.0552 168.575V112.385H135.26V168.575H79.0552ZM11.6099 101.147V44.9574H67.8143V101.147H11.6099Z" fill="#444444"/>
</svg>
