<svg width="124" height="180" viewBox="0 0 124 180" fill="none" xmlns="http://www.w3.org/2000/svg">
<path d="M61.8249 0.00537109C67.504 0.00537109 72.9781 0.737012 78.2471 2.20029C83.5165 3.66356 88.4344 5.74142 93.0009 8.43386C97.626 11.1263 101.812 14.3455 105.559 18.0915C109.306 21.8375 112.526 26.0225 115.219 30.6464C117.912 35.2119 119.991 40.1284 121.454 45.3964C122.918 50.664 123.65 56.1367 123.65 61.8143C123.65 70.3012 122.04 78.1739 118.82 85.4316C115.6 92.6894 111.004 99.2743 105.032 105.186C100.173 109.985 96.4257 115.341 93.7912 121.253C91.2153 127.164 89.9272 133.573 89.9272 140.48V162.956C89.9272 165.297 89.488 167.492 88.6099 169.541C87.7315 171.589 86.5315 173.375 85.0092 174.896C83.487 176.418 81.7014 177.618 79.6525 178.496C77.6032 179.374 75.4075 179.813 73.0658 179.813H50.584C48.2423 179.813 46.0467 179.374 43.9974 178.496C41.9485 177.618 40.1629 176.418 38.6406 174.896C37.1183 173.375 35.9184 171.589 35.0399 169.541C34.1619 167.492 33.7227 165.297 33.7227 162.956V140.48C33.7227 133.573 32.4054 127.164 29.7709 121.253C27.1947 115.341 23.4771 109.985 18.6178 105.186C12.6459 99.2743 8.05028 92.6894 4.83006 85.4316C1.61002 78.1739 0 70.3012 0 61.8143C0 56.1367 0.731826 50.664 2.19548 45.3964C3.65914 40.1284 5.73753 35.2119 8.43085 30.6464C11.1236 26.0225 14.3437 21.8375 18.0908 18.0915C21.8379 14.3455 25.9947 11.1263 30.5612 8.43386C35.1863 5.74142 40.1334 3.66356 45.4028 2.20029C50.6718 0.737012 56.1459 0.00537109 61.8249 0.00537109ZM73.0658 168.575C74.5881 168.575 75.9054 168.019 77.0176 166.907C78.1302 165.795 78.6863 164.478 78.6863 162.956V146.099H44.9636V162.956C44.9636 164.478 45.5197 165.795 46.6323 166.907C47.7445 168.019 49.0618 168.575 50.584 168.575H73.0658ZM78.9496 134.861C79.7107 127.311 81.6427 120.463 84.7459 114.317C87.8488 108.171 92.0347 102.435 97.3041 97.1087C102.163 92.1921 105.881 86.8363 108.457 81.0418C111.092 75.1887 112.409 68.7793 112.409 61.8143C112.409 54.8492 111.063 48.2934 108.369 42.148C105.735 36.0022 102.134 30.6464 97.5674 26.081C93.0009 21.5156 87.6438 17.9159 81.4963 15.282C75.3493 12.5896 68.7918 11.2434 61.8249 11.2434C54.8581 11.2434 48.3006 12.5896 42.1535 15.282C36.0061 17.9159 30.649 21.5156 26.0825 26.081C21.5156 30.6464 17.8858 36.0022 15.1927 42.148C12.5582 48.2934 11.2409 54.8492 11.2409 61.8143C11.2409 68.7793 12.529 75.1887 15.1049 81.0418C17.7394 86.8363 21.4865 92.1921 26.3458 97.1087C31.6152 102.435 35.8011 108.171 38.9039 114.317C42.0071 120.463 43.9391 127.311 44.7003 134.861H78.9496Z" fill="#444444"/>
</svg>
