<svg width="179" height="180" viewBox="0 0 179 180" fill="none" xmlns="http://www.w3.org/2000/svg">
<path d="M82.2556 101.147L72.3636 111.037C70.8589 104.981 67.3709 99.6035 62.4544 95.7599C57.5382 91.9164 51.4764 89.8281 45.2354 89.8281C38.9945 89.8281 32.9327 91.9164 28.0165 95.7599C23.1 99.6035 19.612 104.981 18.1073 111.037L8.2153 101.147L0.271851 109.089L13.1613 121.975L11.5127 123.623V134.861H0.271851V146.099H11.5127V146.699C12.0861 150.36 13.1185 153.934 14.5854 157.337L0.271851 171.872L8.2153 179.813L20.5803 167.451C23.5224 171.204 27.259 174.258 31.5215 176.396C35.7845 178.533 40.4679 179.7 45.2354 179.813C50.003 179.7 54.6864 178.533 58.9493 176.396C63.2123 174.258 66.9486 171.204 69.8906 167.451L82.2556 179.813L90.199 171.872L75.8855 157.337C77.3707 153.863 78.4035 150.211 78.9581 146.474V145.725H90.199V134.861H78.9581V123.623L77.3096 121.975L90.199 109.089L82.2556 101.147ZM45.2354 101.147C49.7073 101.147 53.9961 102.923 57.1583 106.084C60.3202 109.246 62.0968 113.534 62.0968 118.004H28.3741C28.3741 113.534 30.1507 109.246 33.3125 106.084C36.4747 102.923 40.7635 101.147 45.2354 101.147ZM67.7172 146.099C67.1683 151.874 64.6234 157.278 60.5202 161.38C56.417 165.482 51.012 168.026 45.2354 168.575C39.4589 168.026 34.0539 165.482 29.9507 161.38C25.8475 157.278 23.3026 151.874 22.7536 146.099V129.242H67.7172V146.099ZM178.328 71.9286V81.3685L101.44 130.141V116.88L165.138 76.6485L67.7172 14.9895V85.8637C64.2928 83.4589 60.495 81.6364 56.4763 80.4694V4.72545L65.0194 0.00549316L178.328 71.9286Z" fill="#444444"/>
</svg>
